<svg width="64" height="64" viewBox="0 0 64 64" fill="none" xmlns="http://www.w3.org/2000/svg">
<path d="M0 0.55748C0.201216 0.476444 0.295116 0.408915 0.415846 0.381903C8.88032 -1.54945 17.8009 4.09603 19.7862 11.6459C20.296 13.5907 20.4435 15.5761 20.4435 17.5885C20.4435 23.8282 20.4435 30.0679 20.4569 36.3077C20.4569 36.6453 20.4569 36.983 20.524 37.3071C20.6179 37.7933 20.9398 37.9554 21.4093 37.8069C21.5837 37.7528 21.7715 37.6583 21.9191 37.5367C26.869 33.8091 31.8457 30.122 36.5005 26.0162C38.4993 24.2469 40.0822 22.221 40.7395 19.5603C40.82 19.2092 40.9004 18.858 40.9407 18.4934C41.1285 16.2784 39.9212 14.9143 37.4395 14.5496C36.8895 14.4686 36.3396 14.4281 35.803 14.3335C35.3737 14.266 35.0518 14.0094 35.0652 13.5367C35.092 13.037 35.481 12.8884 35.9103 12.8614C36.7956 12.8209 37.681 12.8209 38.5529 12.8209C44.5223 12.8209 50.4917 12.8209 56.4611 12.8209C56.8233 12.8209 57.1989 12.8479 57.5477 12.9289C57.9501 13.0235 58.205 13.3071 58.1782 13.7528C58.1647 14.185 57.8428 14.32 57.494 14.3876C55.9916 14.6577 54.4758 14.8603 53.0002 15.2114C51.2832 15.6166 49.8478 16.589 48.493 17.71C45.1394 20.4922 42.1212 23.5716 39.4517 27.0291C38.5529 28.1906 38.3383 29.9869 39.1163 31.2295C40.1358 32.8502 41.2492 34.4304 42.3626 35.9971C46.3333 41.629 50.3039 47.261 54.3282 52.8525C55.8709 54.9864 57.8965 56.5531 60.4049 57.4175C61.411 57.7686 62.4573 57.7686 63.5171 57.593C63.6781 57.566 63.839 57.6336 64 57.6471C63.9195 57.7821 63.8659 57.9442 63.772 58.0658C61.4244 60.8075 58.5001 62.5362 54.9721 63.2655C53.349 63.6032 51.7393 64.1029 50.0491 63.9814C44.965 63.6437 40.5785 61.969 37.5066 57.5525C33.603 51.907 29.5921 46.3426 25.6349 40.7376C24.6825 39.387 24.3873 39.3465 23.0996 40.4C17.5192 44.9515 11.9388 49.4895 6.345 54.041C6.13037 54.2166 5.86208 54.3111 5.63404 54.4462C5.58038 54.176 5.48648 53.9059 5.48648 53.6223C5.48648 43.736 5.51331 33.8496 5.48648 23.9633C5.48648 19.4388 5.40599 14.9143 5.27185 10.3898C5.21819 8.72857 5.07064 7.05384 4.70845 5.43312C4.1987 3.05608 2.74995 1.39485 0.348774 0.719551C0.254873 0.692539 0.174387 0.638516 0 0.55748Z" fill="white"/>
</svg>
