<svg width="64" height="50" viewBox="0 0 64 50" fill="none" xmlns="http://www.w3.org/2000/svg">
<path d="M46.8886 22.2099C56.7017 18.1775 62.8455 19.9871 64 20.2111V0H39.3567C32.5522 0 26.3917 2.75893 21.9324 7.21829C19.4398 9.71086 17.4793 12.7355 16.2344 16.1064V9.8576C16.2344 4.41346 11.8216 0 6.37747 0H0V39.4283C0 44.8725 4.41346 49.2852 9.85691 49.2852H16.2344V33.1795C19.7069 42.5816 28.7487 49.2859 39.3567 49.2859H64V38.068C64 31.7183 58.987 26.4856 52.643 26.2478C48.4896 26.092 44.3196 26.5273 40.9841 26.978C32.0612 28.184 29.5659 24.8012 29.5005 24.7108C29.6173 24.7608 35.0517 27.074 46.8886 22.2099Z" fill="#1F7551"/>
</svg>
